<?xml version="1.0" encoding="utf-8"?><!DOCTYPE svg PUBLIC "-//W3C//DTD SVG 1.1//EN" "http://www.w3.org/Graphics/SVG/1.1/DTD/svg11.dtd"><svg version="1.1" id="Contours" xmlns="http://www.w3.org/2000/svg" xmlns:xlink="http://www.w3.org/1999/xlink" x="0px" y="0px" width="1844.343506px" height="1844.343506px" viewBox="0.000001 -0.000000 1844.343506 295.729950" enable-background="new 0 0 1844.343506 1844.343506" xml:space="preserve" stroke="black" fill="none" stroke-linecap='round' stroke-linejoin='round'><path class="selected"  fill="#000000" opacity="1.000000" stroke="none" 
 	d="
M1532.054959 7.571116 C1531.453142 8.026972 1530.569872 7.200105 1530.685400 6.454021 C1530.800927 5.707937 1531.462622 5.187065 1532.074315 4.744550 C1533.241078 5.151491 1533.215447 7.184169 1532.038795 7.561562 z"/><path class="selected"  fill="#000000" opacity="1.000000" stroke="none" 
 	d="
M200.429362 175.427384 C133.970092 173.442220 67.458022 173.224994 0.987203 174.776013 C-0.331030 146.989329 -1.584611 118.610063 6.112934 91.878333 C18.246249 49.742236 53.667200 15.135855 96.074133 3.985962 C138.481065 -7.163932 186.342536 5.545317 217.631433 36.264577 C204.806618 49.014741 191.981803 61.764905 179.156988 74.515069 C160.091444 56.059789 130.681864 49.087512 105.360495 57.019765 C80.039126 64.952018 59.863817 87.457415 54.735253 113.491819 C54.446726 114.956482 54.229525 116.583398 55.018318 117.850793 C56.080731 119.557824 58.413610 119.823345 60.422458 119.908234 C123.364321 122.567984 186.364959 123.836743 249.362872 123.713269 C251.970865 123.708157 255.357119 124.319127 255.764551 126.895103 C262.217169 167.691992 252.127784 210.863513 228.262233 244.574901 C221.827509 253.664299 212.856888 260.591820 204.025628 267.376485 C196.181171 273.403033 188.292925 279.458123 179.576358 284.135328 C157.705730 295.870844 131.509839 298.202374 107.167704 293.353952 C82.825570 288.505530 60.218599 276.852421 40.192782 262.189087 C39.429514 261.630206 38.611476 260.977046 38.444883 260.045825 C38.232452 258.858380 39.157146 257.799416 40.011336 256.947646 C50.705850 246.283461 61.400361 235.619276 72.094872 224.955090 C75.042490 222.015829 79.613286 218.913800 82.918250 221.444595 C102.957788 236.789988 131.143702 240.765820 154.646042 231.562332 C178.148382 222.358844 196.139243 200.300242 200.429362 175.427384 z"/><path class="selected"  fill="#000000" opacity="1.000000" stroke="none" 
 	d="
M1715.830291 277.600329 C1715.855424 283.428122 1713.262341 291.544682 1707.582805 290.238285 C1691.656408 286.574895 1675.087968 285.720732 1658.869288 287.726922 C1659.226350 250.322266 1659.583413 212.917609 1659.940475 175.512952 C1660.011954 168.025113 1659.854326 159.852888 1655.093662 154.072843 C1616.310987 106.985795 1577.528312 59.898747 1538.745638 12.811699 C1537.237697 10.980870 1535.681672 8.361365 1537.080571 6.445928 C1586.373447 7.503770 1635.685238 6.798483 1684.984418 6.093162 C1738.104129 5.333181 1791.223840 4.573200 1844.343552 3.813218 C1833.144349 12.552635 1824.018653 23.616112 1814.990320 34.583735 C1785.424467 70.500347 1755.858614 106.416959 1726.292760 142.333571 C1720.939803 148.836346 1715.306243 156.087428 1715.342566 164.509953 C1715.505141 202.206745 1715.667716 239.903537 1715.830290 277.600329 M1717.987859 62.253590 C1697.340946 62.395003 1676.690947 62.085725 1656.057530 61.326053 C1655.389543 62.635280 1656.387829 64.146083 1657.331656 65.272793 C1666.044759 75.674193 1674.757862 86.075595 1683.470964 96.476996 C1684.155450 97.294112 1684.896582 98.150150 1685.913842 98.468555 C1687.959255 99.108773 1689.905688 97.348809 1691.331338 95.748460 C1700.714858 85.215067 1710.098379 74.681676 1719.481900 64.148284 C1719.664530 63.943274 1719.854677 63.723210 1719.901663 63.452701 C1720.049662 62.600635 1718.852663 62.247667 1717.987859 62.253590 z"/><path class="selected"  fill="#000000" opacity="1.000000" stroke="none" 
 	d="
M1303.067227 292.066042 C1294.549697 293.064713 1288.841834 283.796411 1285.416045 275.934501 C1279.106832 261.455353 1272.797617 246.976208 1266.488402 232.497062 C1257.595173 251.738286 1249.141057 271.182466 1241.134857 290.809361 C1222.642944 291.006318 1204.151031 291.203276 1185.659118 291.400234 C1184.180739 291.415981 1182.338643 291.194766 1181.837457 289.803844 C1181.539711 288.977526 1181.875791 288.071269 1182.208258 287.258300 C1220.057106 194.708063 1257.905951 102.157826 1295.754795 9.607589 C1296.701745 7.292051 1297.734081 4.862577 1299.729883 3.354199 C1302.156483 1.520240 1305.441294 1.454902 1308.482948 1.466425 C1320.680471 1.512651 1332.877995 1.558872 1345.075518 1.605094 C1348.477141 1.617984 1352.690730 2.167525 1353.850465 5.365371 C1388.675156 101.390892 1426.237782 196.423452 1466.477328 290.308694 C1449.394137 290.733433 1432.302869 290.833307 1415.215881 290.608243 C1412.468010 290.572049 1409.600138 290.497813 1407.177065 289.201349 C1403.835956 287.413691 1402.059434 283.722326 1400.498922 280.269278 C1393.534872 264.859462 1386.570822 249.449646 1379.606772 234.039830 C1372.106820 249.644174 1364.606869 265.248518 1357.106918 280.852863 C1354.653143 285.958169 1350.839203 291.893043 1345.195533 291.409145 C1331.178522 290.207296 1317.039952 290.427756 1303.067227 292.066042 M1324.388124 211.465507 C1332.072035 193.399423 1339.481386 175.216563 1346.612757 156.925324 C1347.574044 154.459719 1348.542804 151.933219 1348.628369 149.288231 C1348.717563 146.531009 1347.841092 143.844141 1346.963125 141.228916 C1340.579862 122.214934 1333.567349 103.412207 1325.940924 84.861864 C1318.791655 101.100233 1311.642387 117.338602 1304.493118 133.576970 C1301.878762 139.515043 1299.226104 146.196332 1301.440064 152.295017 C1306.374448 165.887506 1311.308831 179.479995 1316.243213 193.072485 C1318.535589 199.387173 1320.852550 205.753239 1324.388122 211.465508 z"/><path class="selected"  fill="#000000" opacity="1.000000" stroke="none" 
 	d="
M518.709968 291.831352 C515.280444 291.842270 511.612999 291.783643 508.783981 289.844980 C506.248780 288.107659 504.857708 285.174293 503.579912 282.379161 C495.286024 264.236563 486.992135 246.093967 478.698245 227.951371 C469.990985 247.546412 461.283724 267.141453 452.576463 286.736494 C451.955518 288.133885 451.266099 289.612555 449.970930 290.425459 C448.660952 291.247655 447.008857 291.215105 445.463374 291.155703 C427.158116 290.452097 408.852857 289.748494 390.547599 289.044891 C428.234277 196.518203 465.920956 103.991515 503.607635 11.464827 C504.473275 9.339546 505.431935 7.094768 507.316607 5.785506 C509.335047 4.383318 511.970967 4.357512 514.428516 4.383674 C526.821744 4.515610 539.214972 4.647545 551.608199 4.779480 C556.590037 4.832515 562.710473 5.625793 564.518352 10.268324 C600.627923 102.996031 637.825484 195.300053 676.100791 287.154987 C661.046131 287.901451 645.991471 288.647915 630.936810 289.394380 C626.720576 289.603436 622.226012 289.747711 618.594004 287.596234 C614.708476 285.294579 612.677245 280.889058 610.873402 276.748878 C603.924899 260.800658 596.976394 244.852439 590.027890 228.904219 C583.393063 246.311623 576.758237 263.719026 570.123410 281.126430 C568.992965 284.092313 567.755766 287.207391 565.262121 289.171087 C562.194074 291.587113 557.965788 291.706377 554.060670 291.718810 C542.277103 291.756323 530.493535 291.793837 518.709968 291.831351 M524.552480 196.649633 C526.020650 203.904236 527.218147 211.811907 532.496980 217.000232 C540.969549 197.204492 549.442119 177.408752 557.914688 157.613012 C558.963345 155.162877 560.027369 152.649249 560.170629 149.987986 C560.332288 146.984907 559.309549 144.058442 558.291258 141.228655 C551.417264 122.126153 544.087237 103.187755 536.309524 84.435034 C527.463678 102.738638 518.846347 121.152679 510.460215 139.671417 C508.408744 144.201595 506.387546 149.578702 508.801206 153.926723 C516.196888 167.249449 521.529960 181.714592 524.552480 196.649633 z"/><path class="selected"  fill="#000000" opacity="1.000000" stroke="none" 
 	d="
M883.950088 234.271156 C924.041238 243.123311 970.669550 232.567618 995.130665 199.593161 C1010.389963 179.023082 1015.413497 151.309484 1008.693974 126.594664 C1001.974451 101.879845 983.758028 80.625019 960.513681 69.869805 C937.033121 59.005295 910.068172 58.779234 884.307679 61.181589 C882.203008 61.377865 879.835188 61.736592 878.609904 63.459045 C877.745073 64.674790 877.687675 66.268534 877.662202 67.760285 C877.487110 78.013977 877.312017 88.267668 877.136924 98.521360 C858.936857 99.010217 840.736789 99.499073 822.536722 99.987929 C823.723524 68.685268 822.793191 37.302513 819.754184 6.125125 C856.102456 6.300236 892.450729 6.475347 928.799001 6.650458 C959.996907 6.800757 991.041212 17.747693 1015.432936 37.199576 C1039.824659 56.651458 1057.404956 84.481612 1064.493473 114.863924 C1072.266320 148.179368 1067.286429 184.281115 1050.912215 214.318110 C1034.538002 244.355106 1006.942587 268.074447 974.836913 279.888070 C925.596678 298.006538 871.061296 288.036089 818.680951 291.065797 C819.210865 260.869471 819.740779 230.673145 820.270693 200.476819 C820.297259 198.962966 820.350905 197.357194 821.183674 196.092698 C822.628095 193.899458 825.691547 193.651562 828.317594 193.628660 C842.975908 193.500833 857.634221 193.373004 872.292534 193.245174 C873.474317 193.234869 874.726094 193.242864 875.735660 193.857270 C877.622403 195.005511 877.805519 197.624621 877.774751 199.833085 C877.639348 209.552246 877.503944 219.271407 877.368540 228.990568 C877.325940 232.048392 880.963890 233.611805 883.950083 234.271163 z"/></svg>