<?xml version="1.0" encoding="utf-8"?><!DOCTYPE svg PUBLIC "-//W3C//DTD SVG 1.1//EN" "http://www.w3.org/Graphics/SVG/1.1/DTD/svg11.dtd"><svg version="1.1" id="Contours" xmlns="http://www.w3.org/2000/svg" xmlns:xlink="http://www.w3.org/1999/xlink" x="0px" y="0px" width="2038.000000px" height="2038.000000px" viewBox="-0.000000 -0.000000 2038.000000 2038.000000" enable-background="new 0 0 2038.000000 2038.000000" xml:space="preserve" stroke="black" fill="none" stroke-linecap='round' stroke-linejoin='round'><path class="selected"  fill="#000000" opacity="1.000000" stroke="none" 
 	d="
M613.398148 1021.854118 C621.110046 1004.077428 628.821943 986.300737 636.533841 968.524046 C642.971416 985.918228 649.408992 1003.312410 655.846567 1020.706591 C656.701113 1023.015556 657.565210 1025.369644 657.683459 1027.828828 C657.852185 1031.337796 656.495188 1034.719597 655.162251 1037.969920 C648.037895 1055.342403 640.913540 1072.714886 633.789186 1090.087370 C626.882984 1071.242418 619.976782 1052.397466 613.070580 1033.552514 C612.367225 1031.633270 611.653820 1029.655036 611.719290 1027.612019 C611.783732 1025.601131 612.597435 1023.699839 613.398146 1021.854118 z"/><path class="selected"  fill="#000000" opacity="1.000000" stroke="none" 
 	d="
M1794.716934 971.751853 C1793.163440 973.944078 1790.969399 976.477399 1788.359291 975.839799 C1787.067171 975.524158 1786.102536 974.477924 1785.219975 973.482791 C1776.843475 964.037851 1768.466975 954.592912 1760.090475 945.147973 C1759.610783 944.607096 1759.102336 943.853945 1759.459021 943.225114 C1759.758891 942.696445 1760.479169 942.627069 1761.086925 942.620327 C1779.823781 942.412471 1798.560636 942.204615 1817.297492 941.996759 C1818.935015 941.978593 1820.785728 942.048596 1821.883750 943.263570 C1811.513395 951.378371 1802.330403 961.008049 1794.716934 971.751853 z"/><path class="selected"  fill="#000000" opacity="1.000000" stroke="none" 
 	d="
M1422.662219 977.377170 C1423.492038 975.258864 1424.418341 973.015068 1426.289622 971.721190 C1432.173994 987.907864 1438.058365 1004.094538 1443.942736 1020.281212 C1445.537010 1024.666725 1447.134318 1029.528313 1445.445654 1033.878354 C1438.844168 1050.883933 1432.242682 1067.889513 1425.641197 1084.895092 C1419.157054 1068.807798 1412.725437 1052.699334 1406.346484 1036.570041 C1405.278484 1033.869585 1404.197054 1031.097963 1404.129654 1028.194767 C1404.053905 1024.931846 1405.263131 1021.792389 1406.453597 1018.753445 C1411.856473 1004.961354 1417.259346 991.169262 1422.662219 977.377170 z"/><path class="selected"  fill="#000000" opacity="1.000000" stroke="none" 
 	d="
M2038.000000 0.000000 C2038.000000 679.333333 2038.000000 1358.666667 2038.000000 2038.000000 C1358.666667 2038.000000 679.333333 2038.000000 0.000000 2038.000000 C0.000000 1358.666667 0.000000 679.333333 0.000000 0.000000 C679.333333 0.000000 1358.666667 0.000000 2038.000000 0.000000 M1407.692087 1172.071364 C1420.023419 1172.056206 1432.354752 1172.041048 1444.686084 1172.025889 C1447.610966 1172.022294 1450.723892 1171.965094 1453.167437 1170.357599 C1455.435736 1168.865388 1456.718176 1166.301358 1457.898950 1163.856436 C1465.585730 1147.940113 1473.272511 1132.023790 1480.959291 1116.107466 C1487.916004 1131.251256 1494.872716 1146.395046 1501.829428 1161.538836 C1503.062968 1164.224080 1504.387012 1167.024004 1506.754740 1168.792058 C1509.816466 1171.078340 1513.937760 1171.158774 1517.758894 1171.145196 C1532.640726 1171.092311 1547.522559 1171.039428 1562.404392 1170.986545 C1564.420188 1170.979382 1566.749203 1170.820585 1567.932932 1169.188938 C1569.206125 1167.433970 1568.438098 1164.993508 1567.627821 1162.982444 C1530.573747 1071.016506 1493.519678 979.050568 1456.465610 887.084630 C1455.540495 884.788551 1454.522980 882.370599 1452.522416 880.912670 C1450.239511 879.248981 1447.197932 879.202585 1444.373197 879.222360 C1432.278579 879.307031 1420.183961 879.391702 1408.089343 879.476373 C1405.191922 879.496657 1402.081195 879.583911 1399.742045 881.293832 C1397.676696 882.803604 1396.614385 885.294086 1395.645516 887.661863 C1358.037532 979.570379 1320.429548 1071.478896 1282.821564 1163.387412 C1282.202000 1164.901539 1281.578472 1166.607934 1282.191542 1168.124702 C1283.126975 1170.439016 1286.187018 1170.819509 1288.683154 1170.839361 C1304.146392 1170.962333 1319.609629 1171.085306 1335.072867 1171.208279 C1337.711917 1171.229267 1340.537836 1171.196010 1342.712866 1169.701263 C1344.740155 1168.308043 1345.796305 1165.918846 1346.754388 1163.653226 C1353.786636 1147.023721 1360.818887 1130.394217 1367.851137 1113.764714 C1374.065809 1128.667876 1380.280481 1143.571037 1386.495154 1158.474199 C1388.125853 1162.384715 1389.905729 1166.490476 1393.316184 1169.004458 C1397.332071 1171.964728 1402.703048 1172.077497 1407.692087 1172.071364 M657.686315 1171.883898 C660.539822 1171.946094 663.561572 1171.966839 666.022291 1170.520728 C668.962650 1168.792743 670.411448 1165.397082 671.671960 1162.228052 C678.373771 1145.379135 685.075582 1128.530219 691.777394 1111.681303 C699.431852 1129.318614 707.086311 1146.955926 714.740769 1164.593237 C717.229639 1170.328060 724.970966 1170.968500 731.217958 1170.728165 C745.738792 1170.169508 760.259625 1169.610855 774.780459 1169.052203 C776.143192 1168.999775 777.749833 1168.804543 778.404124 1167.608009 C778.966049 1166.580388 778.531748 1165.315067 778.090946 1164.229959 C740.901716 1072.682510 703.712487 981.135062 666.523258 889.587613 C665.702526 887.567246 664.787350 885.427315 662.976780 884.211866 C661.173308 883.001183 658.856485 882.959770 656.684328 882.960176 C642.568912 882.962813 628.453496 882.965451 614.338080 882.968088 C611.890491 882.968546 609.278508 883.016818 607.250518 884.387198 C605.236698 885.748004 604.216452 888.130764 603.299996 890.381846 C565.503849 983.220140 527.707701 1076.058434 489.911554 1168.896728 C507.835564 1169.854912 525.769454 1170.628300 543.709410 1171.216730 C548.431158 1171.371603 554.344743 1170.763742 555.992952 1166.336294 C562.974251 1147.582996 571.554763 1129.425336 581.610812 1112.125030 C588.951080 1129.120406 596.291347 1146.115782 603.631614 1163.111159 C604.605276 1165.365538 605.665643 1167.730820 607.656024 1169.169093 C609.893061 1170.785599 612.842378 1170.906472 615.601691 1170.966616 C629.629900 1171.272375 643.658107 1171.578136 657.686315 1171.883898 M300.440421 1055.995394 C295.415946 1079.905160 277.396674 1100.662879 254.430351 1108.997763 C231.464029 1117.332647 204.325739 1112.963404 185.135953 1097.841421 C180.751025 1094.385999 174.601446 1098.634879 170.721555 1102.649102 C160.955612 1112.753173 151.189669 1122.857242 141.423725 1132.961312 C140.299059 1134.124917 139.130302 1135.365945 138.742725 1136.937134 C137.818191 1140.685080 141.572317 1143.797500 144.869693 1145.804780 C170.522393 1161.420883 198.427127 1175.373472 228.421219 1176.882803 C268.875682 1178.918509 308.613099 1156.804356 332.136692 1123.829392 C355.660285 1090.854427 363.829933 1048.373083 359.077764 1008.147163 C358.798080 1005.779707 358.333072 1003.160009 356.431547 1001.722208 C354.900464 1000.564511 352.835693 1000.492281 350.916354 1000.467445 C288.182142 999.655677 225.447930 998.843909 162.713717 998.032141 C161.663336 998.018549 160.490211 997.953809 159.769788 997.189299 C158.944148 996.313125 159.086439 994.930702 159.312239 993.748173 C164.080133 968.778556 183.087517 947.043543 207.198748 938.989777 C231.309978 930.936012 259.564324 936.884404 278.381712 953.975938 C279.993764 955.440139 282.484622 953.849029 284.029368 952.313986 C294.750117 941.660571 305.470867 931.007157 316.191617 920.353743 C317.525133 919.028603 318.939328 917.537750 319.096975 915.664408 C319.298169 913.273590 317.404146 911.271713 315.612660 909.675760 C283.566818 881.127594 236.771661 870.137718 195.367811 881.436173 C153.963962 892.734628 119.237314 925.970512 106.134208 966.839112 C97.460196 993.893364 97.909133 1022.950996 99.532289 1051.315347 C99.585623 1052.247355 99.672146 1053.258837 100.301490 1053.948336 C101.063646 1054.783338 102.333603 1054.848615 103.464119 1054.855160 C169.122886 1055.235237 234.781654 1055.615315 300.440421 1055.995394 M980.067003 1078.272875 C980.079247 1076.394712 980.040574 1074.358567 978.886017 1072.877134 C977.270116 1070.803741 974.231122 1070.691544 971.603369 1070.762267 C957.014057 1071.154927 942.424745 1071.547586 927.835434 1071.940246 C925.766693 1071.995924 923.506233 1072.124706 921.971751 1073.513286 C920.163689 1075.149435 920.033533 1077.895795 920.032765 1080.334251 C920.023839 1108.748035 920.014911 1137.161818 920.005983 1165.575601 C920.005372 1167.518968 920.169526 1169.788926 921.785507 1170.868409 C922.744064 1171.508730 923.971275 1171.537737 925.124006 1171.545026 C947.851445 1171.688746 970.578884 1171.832466 993.306323 1171.976187 C1013.396274 1172.103228 1033.650230 1172.215449 1053.355039 1168.298466 C1097.372341 1159.548571 1136.777751 1129.634977 1156.636689 1089.389405 C1176.495626 1049.143833 1176.197980 999.448671 1155.461466 959.648163 C1134.724952 919.847655 1093.943306 891.051392 1049.439133 885.266748 C1037.247958 883.682141 1024.910801 883.728025 1012.617169 883.776501 C983.206453 883.892473 953.795738 884.008445 924.385022 884.124417 C923.530543 884.127786 922.641935 884.138784 921.875320 884.516206 C919.951168 885.463511 919.739232 888.075016 919.792963 890.219045 C920.502047 918.513598 921.211131 946.808151 921.920215 975.102705 C921.953829 976.444021 922.027972 977.898097 922.889407 978.926782 C924.019153 980.275870 926.024371 980.369500 927.783968 980.355834 C939.555624 980.264406 951.327281 980.172980 963.098937 980.081553 C968.883346 980.036628 975.548197 979.566059 978.972068 974.903601 C982.762950 969.741364 980.430653 962.598599 979.335925 956.288207 C978.241196 949.977815 980.431804 941.391687 986.831059 941.128991 C1011.299166 940.124560 1036.699859 939.279026 1059.259666 948.805412 C1091.852878 962.568629 1113.333782 998.697371 1110.368409 1033.952869 C1107.403036 1069.208367 1080.527016 1101.058612 1046.405962 1110.412608 C1027.228770 1115.669872 1006.942647 1114.319129 987.106652 1112.927440 C983.956113 1112.706399 979.850220 1111.526488 979.870803 1108.368272 C979.936206 1098.336471 980.001605 1088.304673 980.067003 1078.272875 M1813.977460 1171.899704 C1815.445951 1171.982479 1817.069589 1172.017263 1818.202038 1171.078712 C1819.550090 1169.961473 1819.637989 1167.961239 1819.616844 1166.210520 C1819.112846 1124.482506 1818.608849 1082.754492 1818.104852 1041.026478 C1818.044214 1036.006016 1821.444783 1031.690603 1824.669679 1027.842388 C1865.311446 979.345265 1905.953211 930.848139 1946.594975 882.351014 C1843.301296 881.822465 1740.003503 881.608952 1636.712488 882.519804 C1635.165573 882.533446 1633.351949 882.687847 1632.527532 883.996842 C1631.490211 885.643880 1632.795455 887.726486 1634.043294 889.220361 C1673.449921 936.396784 1712.856548 983.573207 1752.263175 1030.749630 C1758.167214 1037.817767 1758.404392 1047.874427 1758.352890 1057.083856 C1758.161010 1091.390655 1757.969138 1125.697453 1757.777267 1160.004250 C1757.765145 1162.171664 1757.803229 1164.503723 1759.076291 1166.257901 C1760.858516 1168.713666 1764.303160 1169.099726 1767.332673 1169.270490 C1782.880936 1170.146895 1798.429198 1171.023300 1813.977460 1171.899704 z"/></svg>